<svg xmlns="http://www.w3.org/2000/svg" width="515" height="515" viewBox="0 0 515 515" version="1.1"><path d="M 186.035 7.934 C 184.857 10.135, 184.616 43.846, 185.765 45.659 C 186.169 46.297, 186.348 41.909, 186.162 35.909 C 185.763 23.075, 184.530 23.721, 203.075 27.053 C 227.408 31.425, 252.041 38.778, 274.500 48.373 C 286.500 53.500, 286.500 53.500, 287.033 73 C 287.565 92.500, 287.565 92.500, 287.783 69.682 C 288 46.863, 288 46.863, 301.250 47.007 C 337.612 47.401, 334.355 49.233, 333.701 28.750 C 333.381 18.712, 332.815 9.488, 332.443 8.250 C 331.451 4.950, 187.798 4.640, 186.035 7.934 M 381 126.288 C 381 126.576, 384.572 131.557, 388.938 137.356 C 488.361 269.419, 417.907 455.997, 248.762 508.574 C 241.255 510.908, 241.926 511.268, 255.282 512.078 C 300.611 514.827, 351.873 498.902, 390.500 470.072 C 393.800 467.609, 396.725 465.306, 397 464.954 C 397.275 464.602, 399.749 462.610, 402.498 460.526 C 413.572 452.134, 435.992 426.900, 443.078 414.855 C 444.811 411.910, 446.515 409.275, 446.864 409 C 448.753 407.515, 463.409 377.205, 466.449 368.500 C 467.788 364.663, 473.063 343.606, 474.445 336.580 C 478.560 315.649, 478.533 285.106, 474.382 266.029 C 473.601 262.438, 472.519 257.250, 471.977 254.500 C 469.164 240.219, 459.036 213.944, 452.424 203.771 C 451.091 201.721, 450 199.685, 450 199.247 C 450 198.151, 437.469 179.730, 432.146 173 C 424.393 163.200, 410.965 149.196, 403.645 143.280 C 399.715 140.103, 396.275 137.276, 396 136.997 C 395.725 136.717, 393.925 135.339, 392 133.935 C 390.075 132.531, 386.813 130.117, 384.750 128.572 C 382.688 127.027, 381 125.999, 381 126.288 M 265.555 170.500 C 265.877 171.600, 266.360 173.850, 266.630 175.500 C 266.899 177.150, 267.524 180.300, 268.019 182.500 C 268.514 184.700, 269.866 191, 271.024 196.500 C 272.182 202, 273.502 207.625, 273.958 209 C 274.413 210.375, 275.344 214.200, 276.027 217.500 C 278.214 228.070, 287.027 264.412, 288.031 267 C 288.963 269.402, 288.070 273.385, 284.110 284.500 C 283.522 286.150, 282.101 290.200, 280.954 293.500 C 278.766 299.791, 270.542 322.896, 266.539 334 C 263.838 341.489, 251.512 376.771, 246.450 391.500 C 244.560 397, 242.621 402.400, 242.140 403.500 C 241.660 404.600, 240.324 408.095, 239.171 411.266 C 238.019 414.437, 236.158 419.395, 235.038 422.285 C 233.917 425.174, 233.020 428.205, 233.044 429.019 C 233.068 429.834, 233.766 428.700, 234.595 426.500 C 236.704 420.905, 239.527 413.138, 240.956 409 C 241.621 407.075, 242.581 404.600, 243.089 403.500 C 243.597 402.400, 245.560 397, 247.450 391.500 C 252.512 376.771, 264.838 341.489, 267.539 334 C 271.542 322.896, 279.766 299.791, 281.954 293.500 C 283.101 290.200, 284.522 286.150, 285.110 284.500 C 289.070 273.385, 289.963 269.402, 289.031 267 C 288.027 264.412, 279.214 228.070, 277.027 217.500 C 276.344 214.200, 275.413 210.375, 274.958 209 C 274.502 207.625, 273.187 202, 272.035 196.500 C 270.883 191, 269.504 184.873, 268.970 182.884 C 268.437 180.895, 267.980 178.195, 267.955 176.884 C 267.930 175.573, 267.248 173.150, 266.440 171.500 C 265.631 169.850, 265.233 169.400, 265.555 170.500 M 84 175.860 C 79.222 182.194, 67.006 201.284, 67.003 202.421 C 67.001 202.928, 66.387 204.053, 65.637 204.921 C 60.229 211.186, 47.310 247.403, 44.564 264 C 39.368 295.400, 40.970 336.770, 48.029 353.500 C 48.494 354.600, 49.999 359.100, 51.374 363.500 C 55.503 376.713, 66.403 400.787, 71.924 408.888 C 72.903 410.325, 76.256 415.391, 79.376 420.147 C 82.495 424.903, 85.815 429.403, 86.754 430.147 C 87.693 430.891, 87.084 429.700, 85.401 427.500 C 83.717 425.300, 80.628 420.800, 78.535 417.500 C 76.443 414.200, 73.924 410.325, 72.937 408.888 C 67.460 400.910, 56.516 376.753, 52.374 363.500 C 50.999 359.100, 49.494 354.600, 49.029 353.500 C 41.970 336.770, 40.368 295.400, 45.564 264 C 48.256 247.731, 60.998 211.796, 66.485 205 C 67.151 204.175, 67.988 202.679, 68.346 201.674 C 69.289 199.023, 80.827 181.230, 84.848 176.225 C 86.737 173.873, 88.106 171.785, 87.891 171.585 C 87.676 171.384, 85.925 173.308, 84 175.860 M 359.116 211.501 C 367.591 220.313, 373.139 227.160, 376.539 233.002 C 377.111 233.983, 378.068 235.397, 378.666 236.143 C 407.195 271.716, 400.774 342.870, 365.379 383.372 C 357.230 392.697, 353.596 397.650, 360.149 390.500 C 400.462 346.517, 409.017 293.325, 383.792 243.500 C 382.121 240.200, 380.265 236.890, 379.666 236.143 C 379.068 235.397, 378.111 233.988, 377.539 233.012 C 373.719 226.486, 366.883 218.258, 358.836 210.501 C 349.500 201.501, 349.500 201.501, 359.116 211.501 M 159.385 210.250 C 108.655 263.029, 108.551 346.192, 159.159 391.490 C 161.779 393.835, 161.615 393.511, 158.400 389.990 C 108.799 335.666, 109.601 263.085, 160.385 210.250 C 163.161 207.363, 165.207 205, 164.932 205 C 164.657 205, 162.161 207.363, 159.385 210.250 M 222.984 333.750 C 222.976 358.913, 222.807 390.075, 222.610 403 C 222.342 420.562, 222.421 422.836, 222.923 412 C 223.759 393.983, 224.290 288, 223.545 288 C 223.245 288, 222.993 308.587, 222.984 333.750" stroke="none" fill="#090804" fill-rule="evenodd"/><path d="M 186 34.418 C 186 48.258, 183.639 47, 209.607 47 C 234.554 47, 247.212 89.686, 223.250 93.006 C 215.374 94.097, 211.568 94.938, 200 98.143 C 198.075 98.676, 195.150 99.486, 193.500 99.941 C 189.988 100.911, 187.279 101.845, 184.500 103.045 C 183.400 103.520, 178.675 105.361, 174 107.138 C 169.325 108.914, 164.306 111.185, 162.846 112.184 C 161.386 113.183, 159.811 114.005, 159.346 114.012 C 158.881 114.018, 154.900 116.274, 150.500 119.024 C 146.100 121.774, 141.375 124.582, 140 125.262 C 133.546 128.458, 116.348 142.492, 105.500 153.416 C 93.591 165.409, 91.781 167.401, 84.957 176.023 C 80.764 181.320, 69.276 199.061, 68.346 201.674 C 67.988 202.679, 67.151 204.175, 66.485 205 C 60.998 211.796, 48.256 247.731, 45.564 264 C 40.368 295.400, 41.970 336.770, 49.029 353.500 C 49.494 354.600, 50.999 359.100, 52.374 363.500 C 56.516 376.753, 67.460 400.910, 72.937 408.888 C 73.924 410.325, 76.443 414.200, 78.535 417.500 C 87.185 431.142, 86.947 430.985, 95.729 428.815 C 150.682 415.242, 210.712 449.229, 228.084 503.750 C 230.943 512.725, 234.978 513.379, 251.653 507.569 C 412.617 451.487, 481.928 289, 401.620 156 C 389.931 136.642, 381.798 127.101, 372.138 121.415 C 363.486 116.322, 342.758 106, 341.183 106 C 340.722 106, 337.455 104.813, 333.922 103.363 C 327.393 100.682, 326.465 100.396, 315 97.539 C 311.425 96.649, 306.925 95.503, 305 94.993 C 303.075 94.483, 298.247 93.530, 294.271 92.876 C 287.042 91.687, 287.042 91.687, 286.771 72.594 C 286.500 53.500, 286.500 53.500, 274.500 48.373 C 252.041 38.778, 227.408 31.425, 203.075 27.053 C 184.856 23.779, 186 23.286, 186 34.418 M 265.443 170.699 C 265.827 171.689, 266.360 173.850, 266.630 175.500 C 266.899 177.150, 267.524 180.300, 268.019 182.500 C 268.514 184.700, 269.866 191, 271.024 196.500 C 272.182 202, 273.502 207.625, 273.958 209 C 274.413 210.375, 275.344 214.200, 276.027 217.500 C 278.214 228.070, 287.027 264.412, 288.031 267 C 288.963 269.402, 288.070 273.385, 284.110 284.500 C 283.522 286.150, 282.101 290.200, 280.954 293.500 C 278.766 299.791, 270.542 322.896, 266.539 334 C 263.838 341.489, 251.512 376.771, 246.450 391.500 C 244.560 397, 242.621 402.400, 242.140 403.500 C 241.660 404.600, 240.324 408.095, 239.171 411.266 C 238.019 414.437, 236.158 419.395, 235.038 422.285 C 233.917 425.174, 233 428.061, 233 428.698 C 233 430.939, 244.184 432.502, 259.500 432.402 C 361.390 431.736, 427.909 330.639, 383.792 243.500 C 382.121 240.200, 380.265 236.890, 379.666 236.143 C 379.068 235.397, 378.111 233.988, 377.539 233.012 C 369.087 218.572, 348.687 199.085, 332.500 189.987 C 309.801 177.230, 294.780 172.298, 270.123 169.506 C 265.228 168.952, 264.809 169.059, 265.443 170.699 M 235 171.477 C 216.705 174.875, 205.785 178.708, 191.561 186.725 C 173.386 196.969, 162.595 205.663, 151.618 218.906 C 101.878 278.911, 114.659 366.025, 179.327 407.766 C 186.662 412.500, 187.343 412.879, 196.500 417.316 C 223.826 430.558, 222.763 430.755, 223.211 412.366 C 225.635 312.920, 224.275 288.284, 216.294 287.088 C 203.531 285.176, 171.132 281.215, 162 280.451 C 150.444 279.483, 154.361 278.365, 170 278.168 C 188.669 277.932, 209.148 275.378, 221.346 271.765 C 225.700 270.475, 226.374 269.235, 228.548 258.523 C 230.418 249.304, 234.582 233.372, 239.922 215 C 240.962 211.425, 242.810 204, 244.030 198.500 C 245.250 193, 247.495 184.338, 249.019 179.250 C 252.110 168.935, 251.251 168.459, 235 171.477" stroke="none" fill="#fbcb2b" fill-rule="evenodd"/></svg>